<svg xmlns="http://www.w3.org/2000/svg"
	width="33.233"
	height="30.63"
	viewBox="0 0 33.233 30.63">
<defs><style>.speak-path{fill:#fff;}</style></defs>
<g transform="translate(0 0)">
	<g transform="translate(21.9 0)">
		<path class="speak-path wave"
			d="M338.761,20.134a.974.974,0,0,0-.78,1.784,14.676,14.676,0,0,1,0,26.9.974.974,0,1,0,.78,1.784,16.623,16.623,0,0,0,0-30.466Z"
			transform="translate(-337.397 -20.052)" />
	</g>
	<g transform="translate(21.9 7.346)">
		<g transform="translate(0 0)">
			<path class="speak-path wave"
				d="M339.031,133.477a.974.974,0,0,0-1.3,1.451,8.412,8.412,0,0,1,0,12.539.974.974,0,0,0,1.3,1.451,10.359,10.359,0,0,0,0-15.441Z"
				transform="translate(-337.408 -133.229)" />
		</g>
	</g>
	<g transform="translate(0 2.349)">
		<g transform="translate(0 0)">
			<path class="speak-path"
				d="M17.056,56.337a.974.974,0,0,0-1.016.083L8.476,61.968H.974A.974.974,0,0,0,0,62.941V75.456a.974.974,0,0,0,.974.974h7.5l7.564,5.547a.974.974,0,0,0,1.549-.785V57.206A.973.973,0,0,0,17.056,56.337ZM15.643,79.27l-6.272-4.6a.974.974,0,0,0-.576-.188H1.947V63.915H8.795a.974.974,0,0,0,.576-.188l6.272-4.6Z"
				transform="translate(0 -56.232)" />
		</g>
	</g>
</g>
</svg>