
<svg xmlns="http://www.w3.org/2000/svg" version="1.1" xmlns:xlink="http://www.w3.org/1999/xlink" preserveAspectRatio="none" x="0px" y="0px" width="34px" height="34px" viewBox="0 0 34 34">
<defs>
<g id="Layer0_0_leftInfo">
<path fill="#FFFFFF" stroke="none" d="
M 17 8.7
Q 16.3 8.7 15.8 9.2 15.3 9.7 15.3 10.4 15.3 11.1 15.8 11.6 16.3 12.1 17 12.1 17.7 12.1 18.2 11.6 18.7 11.1 18.7 10.4 18.7 9.7 18.2 9.2 17.7 8.7 17 8.7 Z"/>
</g>

<path id="Layer0_0_1_leftInfo" stroke="#FFFFFF" stroke-width="2" stroke-linejoin="round" stroke-linecap="round" fill="none" d="
M 32 17
Q 32 23.2 27.55 27.55 25.8 29.3 23.8 30.35 20.75 32 17 32 10.8 32 6.35 27.55 2 23.2 2 17 2 10.8 6.35 6.35 10.8 2 17 2 20.75 2 23.8 3.6 25.8 4.65 27.55 6.35 32 10.8 32 17 Z"/>

<path id="Layer0_0_2_leftInfo" stroke="#FFFFFF" stroke-width="2" stroke-linejoin="round" stroke-linecap="round" fill="none" d="
M 14.65 16.4
L 17 16.4 17 25.8 19.35 25.8"/>
</defs>

<g transform="matrix( 1, 0, 0, 1, 0,0) ">
<use xlink:href="#Layer0_0_leftInfo"/>

<use xlink:href="#Layer0_0_1_leftInfo"/>

<use xlink:href="#Layer0_0_2_leftInfo"/>
</g>
</svg>
