<svg xmlns="http://www.w3.org/2000/svg" width="37.548" height="36.009" viewBox="0 0 37.548 36.009"><defs><style>.a{fill:#fff;}</style></defs><path class="a" d="M37.122,27.06,21.84,11.677c-.02-.02-.04-.039-.061-.058a4.4,4.4,0,0,0-5.866-.012q-.031.028-.061.057L.431,27.056A1.467,1.467,0,1,0,2.5,29.132l1.164-1.162V40.635A5.874,5.874,0,0,0,9.534,46.5h5.28a1.467,1.467,0,0,0,1.467-1.467V33.081h5.134V45.035A1.467,1.467,0,0,0,22.881,46.5h5.134a5.874,5.874,0,0,0,5.867-5.867,1.467,1.467,0,1,0-2.933,0,2.937,2.937,0,0,1-2.933,2.933H24.348V31.614a1.467,1.467,0,0,0-1.467-1.467H14.814a1.467,1.467,0,0,0-1.467,1.467V43.568H9.534A2.937,2.937,0,0,1,6.6,40.635V25.087q0-.022,0-.044L17.89,13.775a1.466,1.466,0,0,1,1.9,0L30.948,25.008V33.3a1.467,1.467,0,1,0,2.933,0v-5.34l1.16,1.167a1.467,1.467,0,1,0,2.081-2.067Z" transform="translate(0 -10.492)"/></svg>