
<svg xmlns="http://www.w3.org/2000/svg" version="1.1" xmlns:xlink="http://www.w3.org/1999/xlink" preserveAspectRatio="none" x="0px" y="0px" width="70px" height="70px" viewBox="0 0 70 70">
<defs>
<path id="Layer0_0_1_MenuMedia" stroke="#FFFFFF" stroke-width="2" stroke-linejoin="round" stroke-linecap="round" fill="none" d="
M 60.55 6.65
Q 66 13.5 60.55 18.9
M 21.5 16.2
L 23.75 16.2
M 49.95 21.1
L 34.4 15.75 34.4 21.7 19.3 21.95
Q 17.6 21.7 16.9 20.45
L 16.9 17.55 12.5 17.55
Q 10.9 17.55 10.8 15.85
L 10.8 11.2
Q 10.5 9.25 12.35 8.95
L 16.9 8.95 16.9 6.45
Q 17.35 4.35 18.95 4.45
L 34.4 4.7 34.4 15.75
M 33.95 16.1
L 27.75 16.1
M 0.95 52.1
L 0.95 16.95
Q 0.7 14.6 3.45 13.25
L 6.4 13.25
M 16.9 17.55
L 16.9 8.95
M 29.9 22.5
L 33.15 36.4 26.4 36.4 23.15 22.5
M 26.25 56.7
L 36.45 56.7
M 41.05 56.7
L 64.75 56.7 64.75 60.15
Q 65.2 63 61.25 62.85
L 1.1 62.85
Q -1.5 62.95 -1.9 60.25
L -1.9 57 22.15 56.7
M 38.6 3
L 56.15 -2.65 56.15 29.45 39.55 23.5
M 61.8 24.95
L 61.8 51.35"/>
</defs>

<g transform="matrix( 1, 0, 0, 1, 3.55,4.9) ">
<use xlink:href="#Layer0_0_1_MenuMedia"/>
</g>
</svg>
