<svg xmlns="http://www.w3.org/2000/svg" width="55.467" height="66.952" viewBox="0 0 55.467 66.952"><defs><style>.a{fill:#fff;}</style></defs><g transform="translate(-44.123 511.725)"><path class="a" d="M70.534-511.643a3.77,3.77,0,0,0-2.734,3.48l-.079.916-4.736.039-4.736.026-.262.34a.882.882,0,0,0,.432,1.491c.235.092,5.626.131,16.445.131,15.542,0,16.1.013,16.576.249a66.662,66.662,0,0,1,6.031,6.8c.366.772.183,1.06-2.839,4.527-2.63,3.022-2.891,3.284-3.493,3.493s-2.146.222-22.11.2c-23.64-.026-21.769.039-22.567-.811l-.327-.353-.039-6.358c-.026-6.149-.026-6.384.222-6.79a2.4,2.4,0,0,1,.785-.693c.5-.249.759-.262,4.173-.262,3.768,0,4.356-.065,4.605-.523a.984.984,0,0,0-.131-1.151c-.275-.288-.327-.288-4.317-.288-3.82,0-4.082.013-4.8.288a4.166,4.166,0,0,0-2.316,2.276c-.2.6-.209,1.361-.183,7.261.039,6.476.039,6.607.327,7.117a4.5,4.5,0,0,0,2.067,1.858l.785.366,10.244.039,10.231.039v4.291l-7.81.039-7.823.039-.824.445c-.733.406-1.164.837-3.82,3.9-2.433,2.813-3.035,3.572-3.218,4.121a3.472,3.472,0,0,0,.183,2.538c.3.589,5.39,6.476,6.162,7.143a5.3,5.3,0,0,0,1.138.693c.615.249.994.262,8.334.3l7.679.039-.026,5.848-.039,5.848-1.112.065a3.31,3.31,0,0,0-2.669,1.217c-.667.863-.733,1.217-.733,3.729,0,3.166-.353,2.9,3.872,2.9,3.48-.013,3.585-.026,3.833-.667a1.128,1.128,0,0,0-.445-1.217c-.118-.039-1.361-.078-2.76-.078H65.17v-3.114l.406-.406.406-.406H71.8c5.652,0,5.835.013,6.2.262.484.353.641.955.641,2.446v1.217H75.989c-2.617,0-2.669,0-2.944.3a.959.959,0,0,0,.013,1.374c.3.275.392.288,3.572.288,4.252,0,4.056.17,3.951-3.31a5.956,5.956,0,0,0-.353-2.512,3.171,3.171,0,0,0-3.153-2.015l-1.112-.079-.039-5.861L75.9-464.4h9.917c8.517,0,10.021-.026,10.688-.2a3.959,3.959,0,0,0,2.773-2.25l.314-.667-.039-6.724-.039-6.711-.353-.6a4.324,4.324,0,0,0-1.923-1.727c-.6-.288-.667-.288-10.963-.327L75.9-483.633v-4.317h7.261c4.867,0,7.47-.052,7.941-.144a4.6,4.6,0,0,0,2.473-1.387c1.348-1.4,5.39-6.162,5.652-6.646a2.864,2.864,0,0,0,.288-1.5c0-1.243-.17-1.544-2.289-3.99-3.964-4.553-4.134-4.736-4.932-5.115l-.759-.379-7.784-.065-7.784-.065-.079-.916a3.552,3.552,0,0,0-2-3.166,3.582,3.582,0,0,0-1.845-.392A7.043,7.043,0,0,0,70.534-511.643Zm2.42,2.028a1.74,1.74,0,0,1,.981,1.74v.693H69.749v-.628a1.847,1.847,0,0,1,2.067-1.989A3.573,3.573,0,0,1,72.954-509.615Zm.981,23.823v2.159H69.749v-4.317h4.186Zm22.594,4.383a2.046,2.046,0,0,1,.824.68c.249.419.262.641.262,6.764v6.319l-.5.5a2.6,2.6,0,0,1-1.034.641c-.379.1-6.607.131-21.979.118-20.2-.039-21.455-.052-21.848-.275a39.178,39.178,0,0,1-3.244-3.467c-2.839-3.271-3.1-3.65-2.878-4.343.052-.144,1.321-1.7,2.826-3.441a26.167,26.167,0,0,1,3.284-3.467l.536-.288h21.6C95.391-481.671,95.992-481.658,96.529-481.409ZM73.935-458.515v5.887H69.749V-464.4h4.186Z" transform="translate(0 0)"/></g></svg>