<svg xmlns="http://www.w3.org/2000/svg" width="44.102" height="50.402" viewBox="0 0 44.102 50.402"><defs><style>.a{fill:#fff;}</style></defs><path class="a" d="M46.523,13.2A44.616,44.616,0,0,0,42.233,8.3,44.641,44.641,0,0,0,37.325,4c-2.538-1.862-3.77-2.077-4.475-2.077H8.436A3.942,3.942,0,0,0,4.5,5.866V48.392A3.942,3.942,0,0,0,8.436,52.33H44.663A3.942,3.942,0,0,0,48.6,48.392V17.679c0-.705-.215-1.937-2.077-4.475Zm-6.518-2.68a42.962,42.962,0,0,1,3.572,4.005H36V6.951a42.943,42.943,0,0,1,4.005,3.572ZM45.45,48.392a.8.8,0,0,1-.788.788H8.436a.8.8,0,0,1-.788-.788V5.866a.8.8,0,0,1,.788-.788H32.85V16.1a1.575,1.575,0,0,0,1.575,1.575H45.45Zm-31.5-21.263H29.7V42.879H13.949V27.129Zm15.751,6.3,9.45-6.3V42.879l-9.45-6.3Z" transform="translate(-4.499 -1.928)"/></svg>