<svg xmlns="http://www.w3.org/2000/svg" width="61.037" height="69.13" viewBox="0 0 61.037 69.13"><defs><style>.a{fill:#fff;}</style></defs><g transform="translate(-29.971)"><g transform="translate(29.971)"><g transform="translate(0)"><path class="a" d="M82.069,17.032A30.308,30.308,0,0,0,66.918,8.77a6.743,6.743,0,1,0-12.857,0A30.548,30.548,0,0,0,32.089,49.8a1.013,1.013,0,0,0,1.884-.743,28.489,28.489,0,1,1,12.219,14.2A28.669,28.669,0,0,1,35.984,53.158a1.013,1.013,0,0,0-1.741,1.036A30.5,30.5,0,0,0,60.489,69.13a30.518,30.518,0,0,0,21.58-52.1ZM64.9,8.409a30.979,30.979,0,0,0-8.822,0,4.717,4.717,0,1,1,8.822,0Z" transform="translate(-29.971)"/><path class="a" d="M180.846,206.565l6.108-11.375a2.322,2.322,0,0,0-3.144-3.144l-11.375,6.108a10.393,10.393,0,0,0-4.253,4.253l-6.108,11.375a2.32,2.32,0,0,0,3.144,3.145l11.375-6.108A10.4,10.4,0,0,0,180.846,206.565Zm-5.211,2.469-11.375,6.108a.3.3,0,0,1-.4-.4l6.108-11.375a8.424,8.424,0,0,1,.788-1.206l6.087,6.087A8.41,8.41,0,0,1,175.635,209.034Zm-3.449-8.308a8.437,8.437,0,0,1,1.206-.789l11.375-6.108a.316.316,0,0,1,.149-.042.281.281,0,0,1,.2.093.272.272,0,0,1,.052.35l-6.108,11.375a8.411,8.411,0,0,1-.789,1.206Z" transform="translate(-143.995 -165.874)"/><path class="a" d="M362.5,265.286a3.229,3.229,0,1,0-3.229,3.229A3.233,3.233,0,0,0,362.5,265.286Zm-4.433,0a1.2,1.2,0,1,1,1.2,1.2A1.205,1.205,0,0,1,358.07,265.286Z" transform="translate(-312.019 -226.674)"/><path class="a" d="M108.125,265.286a3.229,3.229,0,1,0,3.229-3.229A3.233,3.233,0,0,0,108.125,265.286Zm4.433,0a1.2,1.2,0,1,1-1.2-1.2A1.205,1.205,0,0,1,112.558,265.286Z" transform="translate(-97.573 -226.674)"/><path class="a" d="M121.035,120.362a22.74,22.74,0,1,0,4.115,2.763,1.013,1.013,0,1,0-1.305,1.548,20.61,20.61,0,1,1-3.748-2.517,1.013,1.013,0,1,0,.939-1.795Z" transform="translate(-80.005 -101.883)"/><path class="a" d="M238.543,141.325a3.229,3.229,0,1,0-3.229,3.229A3.233,3.233,0,0,0,238.543,141.325Zm-4.433,0a1.2,1.2,0,1,1,1.2,1.2A1.205,1.205,0,0,1,234.11,141.325Z" transform="translate(-204.796 -119.45)"/><path class="a" d="M232.085,389.246a3.229,3.229,0,1,0,3.229-3.229A3.233,3.233,0,0,0,232.085,389.246Zm4.433,0a1.2,1.2,0,1,1-1.2-1.2A1.205,1.205,0,0,1,236.518,389.246Z" transform="translate(-204.796 -333.897)"/></g></g></g></svg>