<svg xmlns="http://www.w3.org/2000/svg" width="54.062" height="61.842" viewBox="0 0 54.062 61.842"><defs><style>.a{fill:#fff;}</style></defs><g transform="translate(-26.48)"><g transform="translate(26.48)"><path class="a" d="M74.666,21.155a21.155,21.155,0,1,0-42.309,0c-3.02.376-5.876,2.351-5.876,6.934V39.136c0,5.171,3.62,7.052,7.052,7.052H36.94a1.175,1.175,0,0,0,1.175-1.175V22.259a1.175,1.175,0,0,0-1.175-1.175H34.707a18.8,18.8,0,1,1,37.608,0H70.082a1.175,1.175,0,0,0-1.175,1.175V44.977a1.175,1.175,0,0,0,1.175,1.175h2.233c-.329,8.074-4.207,9.966-11.952,10.307v-.787a2.35,2.35,0,0,0-2.351-2.351H50.62a2.35,2.35,0,0,0-2.351,2.351v3.82a2.35,2.35,0,0,0,2.351,2.351h7.416a2.35,2.35,0,0,0,2.351-2.351V58.81c7.451-.341,13.892-1.88,14.279-12.728,3.02-.376,5.876-2.351,5.876-6.934V28.1C80.542,23.493,77.7,21.531,74.666,21.155Zm-38.9,2.2V43.8H33.473c-1.739,0-4.7-.611-4.7-4.7V28.053c0-4.055,2.926-4.7,4.7-4.7ZM58.036,57.717V59.5H50.62v-3.82h7.416ZM78.191,39.136c0,4.055-2.926,4.7-4.7,4.7H71.257v-20.4h2.292c1.739,0,4.7.611,4.7,4.7Z" transform="translate(-26.48)"/></g></g></svg>