<svg xmlns="http://www.w3.org/2000/svg" width="17.352" height="30.848" viewBox="0 0 17.352 30.848">
  <path id="Icon_metro-mic" data-name="Icon metro-mic" d="M17.031,23.136a4.82,4.82,0,0,0,4.82-4.82V6.748a4.82,4.82,0,1,0-9.64,0V18.316A4.82,4.82,0,0,0,17.031,23.136Zm6.748-7.712v2.892a6.748,6.748,0,0,1-13.5,0V15.424H8.355v2.892a8.677,8.677,0,0,0,7.712,8.623v3.91H12.211v1.928h9.64V30.849H17.995v-3.91a8.677,8.677,0,0,0,7.712-8.623V15.424H23.779Z" transform="translate(-8.355 -1.928)" fill="#fff"/>
</svg>
