<svg xmlns="http://www.w3.org/2000/svg" width="45.16" height="45.16" viewBox="0 0 45.16 45.16">
    <defs>
        <style>.sun-a{fill:#525047;}</style>
    </defs>
    <path class="sun-a" d="M22.58,11.269A11.312,11.312,0,1,0,33.891,22.581,11.325,11.325,0,0,0,22.58,11.269Z" />
    <path class="sun-a" d="M22.58,7.944a2.207,2.207,0,0,1-2.207-2.206V2.207a2.207,2.207,0,0,1,4.414,0V5.738A2.207,2.207,0,0,1,22.58,7.944Z" />
    <path class="sun-a" d="M22.58,37.215a2.207,2.207,0,0,0-2.207,2.207v3.53a2.207,2.207,0,1,0,4.414,0v-3.53A2.208,2.208,0,0,0,22.58,37.215Z" />
    <path class="sun-a" d="M32.928,12.231a2.208,2.208,0,0,1,0-3.121l2.5-2.5a2.207,2.207,0,0,1,3.121,3.121l-2.5,2.5A2.207,2.207,0,0,1,32.928,12.231Z" />
    <path class="sun-a" d="M12.231,32.93a2.2,2.2,0,0,0-3.121,0l-2.5,2.5a2.207,2.207,0,0,0,3.121,3.121l2.5-2.5A2.2,2.2,0,0,0,12.231,32.93Z" />
    <path class="sun-a" d="M37.215,22.58a2.207,2.207,0,0,1,2.207-2.207h3.531a2.207,2.207,0,1,1,0,4.413H39.422A2.206,2.206,0,0,1,37.215,22.58Z" />
    <path class="sun-a" d="M7.944,22.58a2.207,2.207,0,0,0-2.207-2.207H2.207a2.207,2.207,0,1,0,0,4.413H5.738A2.206,2.206,0,0,0,7.944,22.58Z" />
    <path class="sun-a" d="M32.928,32.93a2.208,2.208,0,0,1,3.121,0l2.5,2.5a2.207,2.207,0,0,1-3.121,3.12l-2.5-2.5A2.205,2.205,0,0,1,32.928,32.93Z" />
    <path class="sun-a" d="M12.231,12.231a2.207,2.207,0,0,0,0-3.121l-2.5-2.5a2.207,2.207,0,0,0-3.121,3.12l2.5,2.5A2.2,2.2,0,0,0,12.231,12.231Z" />
</svg>