<svg xmlns="http://www.w3.org/2000/svg" width="49.952" height="49.952" viewBox="0 0 49.952 49.952"><defs><style>.a{fill:#fff;}</style></defs><g transform="translate(0 0)"><path class="a" d="M16.976,23.415H6.439A6.446,6.446,0,0,1,0,16.976V6.439A6.446,6.446,0,0,1,6.439,0H16.976a6.446,6.446,0,0,1,6.439,6.439V16.976A6.446,6.446,0,0,1,16.976,23.415ZM6.439,3.122A3.321,3.321,0,0,0,3.122,6.439V16.976a3.321,3.321,0,0,0,3.317,3.317H16.976a3.321,3.321,0,0,0,3.317-3.317V6.439a3.321,3.321,0,0,0-3.317-3.317Z" transform="translate(0 0)"/><path class="a" d="M288.976,23.415H278.439A6.446,6.446,0,0,1,272,16.976V6.439A6.446,6.446,0,0,1,278.439,0h10.537a6.446,6.446,0,0,1,6.439,6.439V16.976A6.446,6.446,0,0,1,288.976,23.415ZM278.439,3.122a3.321,3.321,0,0,0-3.317,3.317V16.976a3.321,3.321,0,0,0,3.317,3.317h10.537a3.321,3.321,0,0,0,3.317-3.317V6.439a3.321,3.321,0,0,0-3.317-3.317Z" transform="translate(-245.463 0)"/><path class="a" d="M283.708,295.415a11.708,11.708,0,1,1,11.707-11.707A11.721,11.721,0,0,1,283.708,295.415Zm0-20.293a8.586,8.586,0,1,0,8.586,8.586A8.6,8.6,0,0,0,283.708,275.122Z" transform="translate(-245.463 -245.463)"/><path class="a" d="M16.976,295.415H6.439A6.446,6.446,0,0,1,0,288.976V278.439A6.446,6.446,0,0,1,6.439,272H16.976a6.446,6.446,0,0,1,6.439,6.439v10.537A6.446,6.446,0,0,1,16.976,295.415ZM6.439,275.122a3.321,3.321,0,0,0-3.317,3.317v10.537a3.321,3.321,0,0,0,3.317,3.317H16.976a3.321,3.321,0,0,0,3.317-3.317V278.439a3.321,3.321,0,0,0-3.317-3.317Z" transform="translate(0 -245.463)"/></g></svg>