<svg xmlns="http://www.w3.org/2000/svg" width="70.663" height="58.243" viewBox="0 0 70.663 58.243"><defs><style>.a{fill:#fff;}</style></defs><g transform="translate(-6020.701 -1248.572)"><path class="a" d="M.041,28.817h0v-1.1c0-.393-.014-.79-.041-1.18H.041a50.555,50.555,0,0,0,11.813-1.23,18.152,18.152,0,0,0,3.032-.992,3.7,3.7,0,0,0,.824-.491A.664.664,0,0,0,16,23.357V16.32A15.726,15.726,0,0,0,11.422,5.193a15.538,15.538,0,0,0-5.3-3.53A11.493,11.493,0,0,0,7.991,0a17.919,17.919,0,0,1,2.4,1.382A18.138,18.138,0,0,1,13.034,3.59a18.257,18.257,0,0,1,2.184,2.672,18.162,18.162,0,0,1,1.65,3.062A18.02,18.02,0,0,1,17.912,12.7a18.141,18.141,0,0,1,.364,3.619v7.037a2.279,2.279,0,0,1-.407,1.273A4.359,4.359,0,0,1,16.7,25.762a9.688,9.688,0,0,1-1.848.969,18.651,18.651,0,0,1-2.448.786,40.8,40.8,0,0,1-5.571.952A63.938,63.938,0,0,1,.041,28.817Z" transform="translate(6073.087 1266.6)"/><path class="a" d="M18.236,28.6h0a63.938,63.938,0,0,1-6.794-.349A40.816,40.816,0,0,1,5.871,27.3a18.664,18.664,0,0,1-2.448-.786,9.685,9.685,0,0,1-1.848-.969A4.36,4.36,0,0,1,.407,24.412,2.281,2.281,0,0,1,0,23.139V16.1A18.135,18.135,0,0,1,7.887,1.164,17.942,17.942,0,0,1,9.844,0a11.467,11.467,0,0,0,2.042,1.553A15.57,15.57,0,0,0,6.854,4.974,15.726,15.726,0,0,0,2.279,16.1v7.037a.664.664,0,0,0,.287.468,3.7,3.7,0,0,0,.824.491,18.159,18.159,0,0,0,3.032.992,50.543,50.543,0,0,0,11.813,1.23h.041c-.027.391-.041.788-.041,1.179v1.1Z" transform="translate(6020.701 1266.819)"/><g transform="translate(6028.352 1248.572)"><path class="a" d="M499.607,134.537a7.378,7.378,0,0,0-10.511,0,7.6,7.6,0,0,0,0,10.647,7.378,7.378,0,0,0,10.511,0,7.6,7.6,0,0,0,0-10.647m-5.256-4.142a9.3,9.3,0,0,1,6.629,2.776,9.52,9.52,0,0,1,0,13.378,9.3,9.3,0,0,1-13.257,0,9.521,9.521,0,0,1,0-13.378A9.3,9.3,0,0,1,494.352,130.4Z" transform="translate(-449.961 -129.153)"/><path class="a" d="M160.41,134.808a7.862,7.862,0,0,0-11.2,0,8.1,8.1,0,0,0,0,11.346,7.862,7.862,0,0,0,11.2,0,8.1,8.1,0,0,0,0-11.346m-5.6-4.413a9.906,9.906,0,0,1,7.064,2.958,10.145,10.145,0,0,1,0,14.256,9.912,9.912,0,0,1-14.127,0,10.145,10.145,0,0,1,0-14.256A9.906,9.906,0,0,1,154.81,130.4Z" transform="translate(-144.82 -130.395)"/><path class="a" d="M18.236,28.625a63.933,63.933,0,0,1-6.794-.349,40.8,40.8,0,0,1-5.571-.952,18.644,18.644,0,0,1-2.448-.786,9.685,9.685,0,0,1-1.848-.969A4.358,4.358,0,0,1,.407,24.438,2.28,2.28,0,0,1,0,23.165V16.128A18.118,18.118,0,0,1,9.868.014a11.49,11.49,0,0,0,1.886,1.627A15.8,15.8,0,0,0,2.279,16.128v7.037a.664.664,0,0,0,.287.468,3.7,3.7,0,0,0,.824.491,18.149,18.149,0,0,0,3.032.992,50.541,50.541,0,0,0,11.813,1.23,50.55,50.55,0,0,0,11.813-1.23,18.158,18.158,0,0,0,3.032-.992,3.7,3.7,0,0,0,.824-.491.664.664,0,0,0,.287-.468V16.128a15.8,15.8,0,0,0-9.5-14.5A11.487,11.487,0,0,0,26.577,0a17.97,17.97,0,0,1,4.652,3.4,18.182,18.182,0,0,1,3.834,5.733,18.007,18.007,0,0,1,1.408,7v7.037a2.28,2.28,0,0,1-.407,1.273A4.358,4.358,0,0,1,34.9,25.57a9.686,9.686,0,0,1-1.848.969,18.64,18.64,0,0,1-2.448.786,40.811,40.811,0,0,1-5.571.952A63.93,63.93,0,0,1,18.236,28.625Z" transform="translate(9.445 29.618)"/><path class="a" d="M330.306,248.142a7.77,7.77,0,0,0-11.069,0,8,8,0,0,0,0,11.212,7.77,7.77,0,0,0,11.069,0,8,8,0,0,0,0-11.212m-5.535-4.362a9.789,9.789,0,0,1,6.981,2.924,10.026,10.026,0,0,1,0,14.088,9.8,9.8,0,0,1-13.961,0,10.026,10.026,0,0,1,0-14.088A9.789,9.789,0,0,1,324.771,243.78Z" transform="translate(-297.175 -232.264)"/></g></g></svg>