<svg xmlns="http://www.w3.org/2000/svg" width="60.116" height="70.595" viewBox="0 0 60.116 70.595"><defs><style>.a{fill:#fff;}</style></defs><g transform="translate(0 0)"><g transform="translate(0 43.393)"><path class="a" d="M40.354,315.111a1.379,1.379,0,1,0,.4.976A1.387,1.387,0,0,0,40.354,315.111Z" transform="translate(-38.001 -314.708)"/></g><g transform="translate(0 0)"><path class="a" d="M93.981,0H42.137A4.141,4.141,0,0,0,38,4.136v35.8a1.379,1.379,0,0,0,2.758,0V33.571l.015.01A32,32,0,0,1,52.843,49,34.827,34.827,0,0,0,69.464,67.837H53.63L52.461,66.6a16.091,16.091,0,0,1-4.391-11.07,1.379,1.379,0,0,0-2.758,0A18.83,18.83,0,0,0,49.87,67.837H42.137a1.38,1.38,0,0,1-1.379-1.379V50.091a1.379,1.379,0,0,0-2.758,0V66.459a4.141,4.141,0,0,0,4.136,4.136H93.981a4.141,4.141,0,0,0,4.136-4.136V4.136A4.141,4.141,0,0,0,93.981,0ZM95.36,16.974a9.124,9.124,0,0,0-4.523-1.2,9.323,9.323,0,0,0-6.918,3.112,11.109,11.109,0,0,0,0,14.733,9.323,9.323,0,0,0,6.918,3.112,9.126,9.126,0,0,0,4.523-1.2V48.829a25.672,25.672,0,0,1-3.506,3.842,1.379,1.379,0,1,0,1.829,2.064q.862-.763,1.678-1.626V66.459a1.381,1.381,0,0,1-1.379,1.379H76.711l-1.872-.664A32.089,32.089,0,0,1,55.429,48.038,34.739,34.739,0,0,0,42.325,31.3l-1.566-1.065V4.136a1.38,1.38,0,0,1,1.379-1.379h2.1A26.91,26.91,0,0,1,46.78,14.129v3.664a1.379,1.379,0,1,0,2.758,0V14.129A29.694,29.694,0,0,0,47.255,2.758H61.882c-4.522,6.351-7.01,14.7-7.01,23.56,0,8.986,2.559,17.45,7.2,23.833,4.742,6.515,11.088,10.1,17.869,10.1a1.379,1.379,0,1,0,0-2.758c-5.877,0-11.431-3.185-15.64-8.968-8.913-12.247-8.913-32.174,0-44.42.338-.464.689-.916,1.046-1.35H93.981A1.38,1.38,0,0,1,95.36,4.136Zm0,3.413V32.124a6.469,6.469,0,0,1-9.408-.366,8.3,8.3,0,0,1,0-11.006,6.469,6.469,0,0,1,9.408-.366Z" transform="translate(-38.001)"/></g><g transform="translate(33.562 6.15)"><path class="a" d="M290.951,45.508a1.379,1.379,0,0,0-1.767-.824,18.02,18.02,0,0,0-7.443,5.251,1.379,1.379,0,0,0,2.093,1.8,15.254,15.254,0,0,1,6.293-4.455A1.379,1.379,0,0,0,290.951,45.508Z" transform="translate(-281.409 -44.601)"/></g><g transform="translate(46.302 44.471)"><path class="a" d="M376.589,323.829a1.376,1.376,0,0,0-1.456-1.3h-.025a1.379,1.379,0,0,0,.078,2.755l.08,0h.025A1.379,1.379,0,0,0,376.589,323.829Z" transform="translate(-373.809 -322.529)"/></g><g transform="translate(28.629 17.493)"><path class="a" d="M260.1,153.332a15.018,15.018,0,0,1-7.105-4.723,20.615,20.615,0,0,1-3.441-19.906,1.379,1.379,0,1,0-2.6-.906A23.418,23.418,0,0,0,250.9,150.4a17.767,17.767,0,0,0,8.419,5.573,1.379,1.379,0,1,0,.779-2.646Z" transform="translate(-245.634 -126.871)"/></g></g></svg>