<svg xmlns="http://www.w3.org/2000/svg" width="41.129" height="61.495" viewBox="0 0 41.129 61.495"><defs><style>.a{fill:#fff;}</style></defs><g transform="translate(0 0)"><g transform="translate(2.17 28.946)"><path class="a" d="M110.138,251.84c-4.539,0-6.2-4.354-7.236-8.614A1.8,1.8,0,0,1,104.653,241h10.971a1.8,1.8,0,0,1,1.751,2.226C116.343,247.485,114.677,251.84,110.138,251.84Zm-3.1-7.236c1.217,3.634,2.414,3.633,3.1,3.633s1.887,0,3.1-3.633Z" transform="translate(-102.851 -241)"/></g><g transform="translate(0 0)"><path class="a" d="M101.036,25.313H87.445a1.8,1.8,0,0,1-1.783-1.546c-.157-1.092-.316-2.287-.487-3.651-1.02-8.156-.042-13.985,2.908-17.326a8.191,8.191,0,0,1,12.317,0c2.949,3.341,3.928,9.17,2.908,17.325h0c-.17,1.361-.33,2.555-.487,3.651a1.8,1.8,0,0,1-1.783,1.546Zm-12.022-3.6H99.467c.086-.639.173-1.316.264-2.041.861-6.885.139-12.032-2.034-14.493a4.588,4.588,0,0,0-6.915,0c-2.172,2.461-2.895,7.608-2.034,14.494C88.841,20.395,88.928,21.072,89.014,21.709Z" transform="translate(-84.783 0)"/></g><g transform="translate(24.384 50.656)"><path class="a" d="M295.093,432.59c-4.539,0-6.2-4.355-7.236-8.614a1.8,1.8,0,0,1,1.751-2.226h10.971a1.8,1.8,0,0,1,1.751,2.226C301.3,428.235,299.632,432.59,295.093,432.59Zm-3.1-7.236c1.217,3.633,2.414,3.633,3.1,3.633s1.887,0,3.1-3.633Z" transform="translate(-287.806 -421.75)"/></g><g transform="translate(22.214 21.71)"><path class="a" d="M285.992,206.063H272.4a1.8,1.8,0,0,1-1.783-1.546c-.157-1.1-.317-2.29-.487-3.651-1.02-8.156-.042-13.985,2.908-17.326a8.191,8.191,0,0,1,12.317,0c2.949,3.341,3.927,9.17,2.908,17.325h0c-.171,1.364-.33,2.559-.487,3.651A1.8,1.8,0,0,1,285.992,206.063Zm-12.023-3.6h10.453c.086-.638.173-1.315.264-2.041.861-6.885.139-12.032-2.034-14.493a4.588,4.588,0,0,0-6.915,0c-2.172,2.461-2.895,7.608-2.034,14.494C273.8,201.144,273.884,201.821,273.97,202.459Z" transform="translate(-269.739 -180.75)"/></g></g></svg>