
<svg xmlns="http://www.w3.org/2000/svg" version="1.1" xmlns:xlink="http://www.w3.org/1999/xlink" preserveAspectRatio="none" x="0px" y="0px" width="300px" height="300px" viewBox="0 0 300 300">
<defs>
<path id="Layer0_0_1_iconWater" class="icon-out-arrow" stroke="#CDC9C2" stroke-width="8" stroke-linejoin="round" stroke-linecap="round" fill="none" d="
M 39 104.4
Q 47.7705078125 83.0294921875 65.45 65.35 100.55 30.25 150.2 30.25 199.85 30.25 234.95 65.35 270.05 100.45 270.05 150.1 270.05 151.7330078125 270 153.35
L 281.7 153.35 270.7 173.05 257.7 153.35 270 153.35
Q 269.828125 161.2111328125 268.75 168.7
M 30.4 146.65
L 42.7 146.65 29.7 126.95 18.7 146.65 30.4 146.65
Q 30.5193359375 141.030859375 31.1 135.6 31.18515625 134.8216796875 31.275 134.05 31.449609375 132.6669921875 31.65 131.3
M 262.25 193.7
Q 253.494140625 216.305859375 234.95 234.85 199.85 269.95 150.2 269.95 100.55 269.95 65.45 234.85 30.35 199.75 30.35 150.1 30.35 148.3662109375 30.4 146.65"/>

<path id="Layer0_0_2_iconWater" class="icon-inner-line" stroke="#62939E" stroke-width="8" stroke-linejoin="round" stroke-linecap="round" fill="none" d="
M 193.375 164.25
Q 193.7857421875 165.30703125 194.125 166.425 195.37890625 170.5212890625 195.675 175.375 195.75 176.8001953125 195.75 178.3 195.75 197.3 182.3 210.7 168.95 224.1 149.95 224.1 130.95 224.1 117.5 210.7 104.15 197.3 104.15 178.3 104.15 171.2259765625 106.2 166.05 106.5865234375 165.0708984375 107.05 164.15
L 149.575 69.3 149.4 68.9
M 108.6 172.3
Q 117.4708984375 163.8615234375 124.9 170.05 134.6419921875 174.6123046875 140.6 170.05 151.1328125 163.725 158.2 170.05 168.570703125 175.4677734375 173.85 170.05 183.7626953125 163.6646484375 195.675 175.375
M 109.65 192.65
Q 118.5 184.2 125.95 190.4 135.7 194.95 141.65 190.4 152.2 184.1 159.25 190.4 167.8517578125 195.8 174.9 190.4 182.7205078125 185.3697265625 192.05 192.425
M 193.1 164.1
L 149.575 69.3"/>
</defs>

<g transform="matrix( 1, 0, 0, 1, 0,0) ">

<use xlink:href="#Layer0_0_1_iconWater"/>

<use xlink:href="#Layer0_0_2_iconWater"/>
</g>
</svg>
