
<svg xmlns="http://www.w3.org/2000/svg" version="1.1" xmlns:xlink="http://www.w3.org/1999/xlink" preserveAspectRatio="none" x="0px" y="0px" width="300px" height="300px" viewBox="0 0 300 300">
<defs>
<path id="Layer0_0_1_iconWaste" class="icon-inner-line" stroke="#B87544" stroke-width="8" stroke-linejoin="round" stroke-linecap="round" fill="none" d="
M 130.6 96.4
L 130.6 80.8 169.25 80.8 169.25 96.4
M 170.7 140.75
L 170.7 196.05
M 98.9 97.05
L 201.3 97.05 201.3 117.05 98.9 117.05 98.9 97.05 Z
M 150 140.75
L 150 196.05
M 129.75 140.75
L 129.75 196.05
M 192.4 119.4
L 192.4 205.95
Q 193.448046875 219.55078125 181.35 219.4
L 120.35 219.4
Q 106.5458984375 220.296484375 108.05 206.95
L 108.05 119.4"/>

<path id="Layer0_0_2_iconWaste" class="icon-out-arrow" stroke="#CDC9C2" stroke-width="8" stroke-linejoin="round" stroke-linecap="round" fill="none" d="
M 270 153.35
L 257.7 153.35 270.7 173.05 281.7 153.35 270 153.35
Q 269.828125 161.2111328125 268.75 168.7
M 39 104.4
Q 47.7705078125 83.0294921875 65.45 65.35 100.55 30.25 150.2 30.25 199.85 30.25 234.95 65.35 270.05 100.45 270.05 150.1 270.05 151.7330078125 270 153.35
M 30.4 146.65
Q 30.5193359375 141.030859375 31.1 135.6 31.18515625 134.8216796875 31.275 134.05 31.449609375 132.6669921875 31.65 131.3
M 30.4 146.65
L 42.7 146.65 29.7 126.95 18.7 146.65 30.4 146.65
Q 30.35 148.3662109375 30.35 150.1 30.35 199.75 65.45 234.85 100.55 269.95 150.2 269.95 199.85 269.95 234.95 234.85 253.494140625 216.305859375 262.25 193.7"/>
</defs>

<g transform="matrix( 1, 0, 0, 1, 0,0) ">
<use xlink:href="#Layer0_0_1_iconWaste"/>

<use xlink:href="#Layer0_0_2_iconWaste"/>
</g>
</svg>
