
<svg xmlns="http://www.w3.org/2000/svg" version="1.1" xmlns:xlink="http://www.w3.org/1999/xlink" preserveAspectRatio="none" x="0px" y="0px" width="300px" height="300px" viewBox="0 0 300 300">
<defs>
<path id="Layer0_0_1_iconPlastic" class="icon-out-arrow" stroke="#CDC9C2" stroke-width="8" stroke-linejoin="round" stroke-linecap="round" fill="none" d="
M 39 104.4
Q 47.7705078125 83.0294921875 65.45 65.35 100.55 30.25 150.2 30.25 199.85 30.25 234.95 65.35 270.05 100.45 270.05 150.1 270.05 151.7330078125 270 153.35
L 281.7 153.35 270.7 173.05 257.7 153.35 270 153.35
Q 269.828125 161.2111328125 268.75 168.7
M 30.4 146.65
L 42.7 146.65 29.7 126.95 18.7 146.65 30.4 146.65
Q 30.5193359375 141.030859375 31.1 135.6 31.18515625 134.8216796875 31.275 134.05 31.449609375 132.6669921875 31.65 131.3
M 262.25 193.7
Q 253.494140625 216.305859375 234.95 234.85 199.85 269.95 150.2 269.95 100.55 269.95 65.45 234.85 30.35 199.75 30.35 150.1 30.35 148.3662109375 30.4 146.65"/>

<path id="Layer0_0_2_iconPlastic" class="icon-inner-line" stroke="#81766D" stroke-width="8" stroke-linejoin="round" stroke-linecap="round" fill="none" d="
M 195 194.7
L 195 113.35 191 88.7 172.7 88.7 172.7 108.4
Q 172.77578125 119.21640625 163.7 118.35
L 136.35 118.35
Q 128.628515625 118.797265625 127.35 108.7
L 127.35 88.7 109.05 88.7 104.65 113.35 104.65 194.05
Q 104.6884765625 194.3728515625 104.725 194.7 106.9533203125 211.0017578125 121.7 211.05
L 175.7 211.05
Q 191.9009765625 210.9794921875 195 194.7 Z
M 147.35 188.7
L 128.7 170.05
M 131.3 195.95
L 122 186.65"/>
</defs>

<g transform="matrix( 1, 0, 0, 1, 0,0) ">
<use xlink:href="#Layer0_0_1_iconPlastic"/>

<use xlink:href="#Layer0_0_2_iconPlastic"/>
</g>
</svg>
