
<svg xmlns="http://www.w3.org/2000/svg" version="1.1" xmlns:xlink="http://www.w3.org/1999/xlink" preserveAspectRatio="none" x="0px" y="0px" width="300px" height="300px" viewBox="0 0 300 300">
<defs>
<path id="Layer0_0_1_iconWood" class="icon-out-arrow" stroke="#CDC9C2" stroke-width="8" stroke-linejoin="round" stroke-linecap="round" fill="none" d="
M 39 104.4
Q 47.7705078125 83.0294921875 65.45 65.35 100.55 30.25 150.2 30.25 199.85 30.25 234.95 65.35 270.05 100.45 270.05 150.1 270.05 151.7330078125 270 153.35
L 281.7 153.35 270.7 173.05 257.7 153.35 270 153.35
Q 269.828125 161.2111328125 268.75 168.7
M 30.4 146.65
L 42.7 146.65 29.7 126.95 18.7 146.65 30.4 146.65
Q 30.5193359375 141.030859375 31.1 135.6 31.18515625 134.8216796875 31.275 134.05 31.449609375 132.6669921875 31.65 131.3
M 262.25 193.7
Q 253.494140625 216.305859375 234.95 234.85 199.85 269.95 150.2 269.95 100.55 269.95 65.45 234.85 30.35 199.75 30.35 150.1 30.35 148.3662109375 30.4 146.65"/>

<path id="Layer0_0_2_iconWood" class="icon-inner-line" stroke="#4E643B" stroke-width="7" stroke-linejoin="round" stroke-linecap="round" fill="none" d="
M 182.05 190
L 190 181.45 182.75 160.65 166.35 146 150.7 159.7 134.05 145.7 118.55 157.15 109.7 182.05 117.05 191 134.35 177 149.7 190.35 166.05 177 182.05 190 Z
M 182.75 160.65
L 150.35 67.65 118.55 157.15
M 135.6 223.4
L 135.6 205.55
M 162.2 205.55
L 162.2 223.4
M 162.2 223.75
L 135.6 223.75
M 109.7 182.05
L 101.975 203.8 197.775 203.8 190 181.45"/>
</defs>

<g transform="matrix( 1, 0, 0, 1, 0,0) ">
<use xlink:href="#Layer0_0_1_iconWood"/>

<use xlink:href="#Layer0_0_2_iconWood"/>
</g>
</svg>
