<svg xmlns="http://www.w3.org/2000/svg"
     width="26.923"
     height="39.009"
     viewBox="0 0 26.923 39.009">
<defs>
<style>.alert-a{fill:#525047;}</style>
</defs>
<g transform="translate(-79.316)">
<g transform="translate(79.316)">
<path class="alert-a"
      d="M105.976,27.687l-3.462-4.9V13.22A9.751,9.751,0,0,0,94.2,3.589V1.427a1.427,1.427,0,1,0-2.854,0V3.589a9.751,9.751,0,0,0-8.309,9.631v9.569l-3.461,4.9a1.428,1.428,0,0,0,1.165,2.251H104.81A1.428,1.428,0,0,0,105.976,27.687Z"
      transform="translate(-79.316)" />
<path class="alert-a"
      d="M207.182,406.313a4.026,4.026,0,1,0,4.026,4.026A4.031,4.031,0,0,0,207.182,406.313Z"
      transform="translate(-193.721 -375.356)" />
</g>
</g>
</svg>