<svg xmlns="http://www.w3.org/2000/svg" width="33.65" height="33.656" viewBox="0 0 33.65 33.656">
  <g id="Icon_ionic-ios-chatboxes" data-name="Icon ionic-ios-chatboxes" transform="translate(-3.375 -3.375)">
    <path id="Path_1524" data-name="Path 1524" d="M32.7,11.981H14.769a3.087,3.087,0,0,0-3.083,3.083V27.548a3.08,3.08,0,0,0,3.083,3.075H25.028a.884.884,0,0,1,.615.259l5.1,4.7c.283.275.752.162.752-.235V31.254c0-.485.307-.639.793-.639h.081a3.368,3.368,0,0,0,3.406-3.075V15.064A3.07,3.07,0,0,0,32.7,11.981Z" transform="translate(1.253 1.297)" fill="#525047"/>
    <path id="Path_1525" data-name="Path 1525" d="M13.6,11.3H27.955V6.013a2.638,2.638,0,0,0-2.638-2.638H6.013A2.638,2.638,0,0,0,3.375,6.013V19.379a2.638,2.638,0,0,0,2.638,2.638h4.944V13.934A2.65,2.65,0,0,1,13.6,11.3Z" transform="translate(0 0)" fill="#525047"/>
  </g>
</svg>
